<svg id="undraw_creative_team_r-90-h" xmlns="http://www.w3.org/2000/svg" width="873.504" height="646.493" viewBox="0 0 873.504 646.493">
  <ellipse id="Ellipse_17" data-name="Ellipse 17" cx="254" cy="227.491" rx="254" ry="227.491" transform="translate(365.004 94.429)" fill="#c5bebe" stroke="#855a5a" stroke-width="1"/>
  <circle id="Ellipse_18" data-name="Ellipse 18" cx="97" cy="97" r="97" transform="translate(20.806)" fill="#8d7e46"/>
  <circle id="Ellipse_19" data-name="Ellipse 19" cx="254" cy="254" r="254" transform="translate(57.806 12.999)" fill="#8a8a8a"/>
  <ellipse id="Ellipse_20" data-name="Ellipse 20" cx="279" cy="15" rx="279" ry="15" transform="translate(20.806 465.308)" fill="#3f3d56"/>
  <ellipse id="Ellipse_21" data-name="Ellipse 21" cx="209" cy="10.345" rx="209" ry="10.345" transform="translate(34.806 470.624)" opacity="0.1"/>
  <ellipse id="Ellipse_22" data-name="Ellipse 22" cx="279" cy="16.5" rx="279" ry="16.5" transform="translate(299.379 555.411)" fill="#3f3d56"/>
  <ellipse id="Ellipse_23" data-name="Ellipse 23" cx="209" cy="11.379" rx="209" ry="11.379" transform="translate(313.379 561.101)" opacity="0.1"/>
  <ellipse id="Ellipse_24" data-name="Ellipse 24" cx="178.043" cy="9" rx="178.043" ry="9" transform="translate(146.995 524.411)" fill="#3f3d56"/>
  <ellipse id="Ellipse_25" data-name="Ellipse 25" cx="85.903" cy="4.342" rx="85.903" ry="4.342" transform="translate(0 509.637)" fill="#3f3d56"/>
  <ellipse id="Ellipse_26" data-name="Ellipse 26" cx="159.879" cy="8.082" rx="159.879" ry="8.082" transform="translate(528.62 630.329)" fill="#3f3d56"/>
  <rect id="Rectangle_108" data-name="Rectangle 108" width="320" height="190" transform="translate(415.466 380.411)" fill="#3f3d56"/>
  <circle id="Ellipse_27" data-name="Ellipse 27" cx="72" cy="72" r="72" transform="translate(473.79 405.411)" fill="#2b2b2b"/>
  <rect id="Rectangle_109" data-name="Rectangle 109" width="24" height="24" transform="translate(618.9 426.932)" fill="#2b2b2b"/>
  <rect id="Rectangle_110" data-name="Rectangle 110" width="24" height="24" transform="translate(641.743 426.932)" fill="#2b2b2b" opacity="0.5"/>
  <rect id="Rectangle_111" data-name="Rectangle 111" width="24" height="24" transform="translate(664.586 426.932)" fill="#2b2b2b" opacity="0.2"/>
  <rect id="Rectangle_112" data-name="Rectangle 112" width="24" height="24" transform="translate(618.9 454.595)" fill="#2f2e41"/>
  <rect id="Rectangle_113" data-name="Rectangle 113" width="24" height="24" transform="translate(641.743 454.595)" fill="#2f2e41" opacity="0.5"/>
  <rect id="Rectangle_114" data-name="Rectangle 114" width="24" height="24" transform="translate(664.586 454.595)" fill="#2f2e41" opacity="0.2"/>
  <rect id="Rectangle_115" data-name="Rectangle 115" width="24" height="24" transform="translate(618.9 482.258)" fill="#ff6584"/>
  <rect id="Rectangle_116" data-name="Rectangle 116" width="24" height="24" transform="translate(641.743 482.258)" fill="#ff6584" opacity="0.5"/>
  <rect id="Rectangle_117" data-name="Rectangle 117" width="24" height="24" transform="translate(664.586 482.258)" fill="#ff6584" opacity="0.2"/>
  <path id="Path_15" data-name="Path 15" d="M757.9,558.459v144c39.765,0,74-32.235,74-72S797.667,558.459,757.9,558.459Z" transform="translate(-218.671 -153.048)" fill="#3f3d56" opacity="0.5"/>
  <path id="Path_16" data-name="Path 16" d="M1043.4,546.959s42,19,27,41-60,64-61,73-7,17-7,17-20-21-18-23,22-21,23-26,31-44,31-44l-27-24Z" transform="translate(-303.525 -141.793)" fill="#ffb9b9"/>
  <path id="Path_17" data-name="Path 17" d="M1043.4,546.959s42,19,27,41-60,64-61,73-7,17-7,17-20-21-18-23,22-21,23-26,31-44,31-44l-27-24Z" transform="translate(-303.525 -141.793)" opacity="0.1"/>
  <path id="Path_18" data-name="Path 18" d="M990.4,588.959s29,12,27,31,35,73,35,73,4,13,3,17,26,3,26,3v-9s-21-36-23-46-14-49-14-49-4-35-24-35a37.5,37.5,0,0,0-30,15Z" transform="translate(-303.525 -153.048)" fill="#ffb9b9"/>
  <path id="Path_19" data-name="Path 19" d="M991.9,498.459s60,49,58,53-31,19-36,20-40.378-73-40.378-73Z" transform="translate(-303.525 -133.89)" fill="#2f2e41"/>
  <path id="Path_20" data-name="Path 20" d="M991.9,498.459s60,49,58,53-31,19-36,20-40.378-73-40.378-73Z" transform="translate(-303.525 -133.89)" opacity="0.1"/>
  <path id="Path_21" data-name="Path 21" d="M926.9,508.459s-6,27,10,38,43,54,46,54,46-23,44-27-24-39-24-39l-7-37S934.9,495.459,926.9,508.459Z" transform="translate(-289.123 -135.481)" fill="#2f2e41"/>
  <path id="Path_22" data-name="Path 22" d="M991.9,420.459l9,58,16,41s24,25,10,27-22-27-22-27l-13-24Z" transform="translate(-303.525 -129.829)" fill="#ffb9b9"/>
  <path id="Path_23" data-name="Path 23" d="M991.9,420.459l9,58,16,41s24,25,10,27-22-27-22-27l-13-24Z" transform="translate(-303.525 -129.829)" opacity="0.1"/>
  <path id="Path_24" data-name="Path 24" d="M958.4,355.959s0,21-7,23,28,29,28,29-4-35,10-44Z" transform="translate(-272.758 -121.224)" fill="#ffb9b9"/>
  <path id="Path_25" data-name="Path 25" d="M958.4,355.959s0,21-7,23,28,29,28,29-4-35,10-44Z" transform="translate(-272.758 -121.224)" opacity="0.1"/>
  <circle id="Ellipse_28" data-name="Ellipse 28" cx="23" cy="23" r="23" transform="translate(677.54 208.261)" fill="#ffb9b9"/>
  <path id="Path_26" data-name="Path 26" d="M975.4,397.959s-21-26-24-25-25,23-27,30-6,57-3,67,3,36,2,38-7,7-1,7,27-15,41-12,33-1,34-3-1-54,0-58-2-24-3-28-1-20-11-24l-4.264-.421-.239,9.892Z" transform="translate(-272.925 -126.182)" fill="#2b2b2b"/>
  <path id="Path_27" data-name="Path 27" d="M931.4,449.959s2,31,17,44,47,35,49,39,21,25,25,16a14.962,14.962,0,0,0,.8-8.867,22.053,22.053,0,0,0-9.9-14.413l-8.9-5.721-44-46-2-24Z" transform="translate(-288.947 -131.202)" fill="#ffb9b9"/>
  <path id="Path_28" data-name="Path 28" d="M988.9,651.459s-11.5-2.5-15.5,4.5,4,26,4,26,23,48,27,42-3-28-3-28,10-22,6-23S988.9,663.459,988.9,651.459Z" transform="translate(-288.477 -153.048)" fill="#2f2e41"/>
  <path id="Path_29" data-name="Path 29" d="M1059.4,708.959s-6-3-7,0-7,18,0,20,76,4,74,0-13-9-20-11-25-17-25-17S1071.4,713.959,1059.4,708.959Z" transform="translate(-303.525 -153.048)" fill="#2f2e41"/>
  <path id="Path_30" data-name="Path 30" d="M997.572,331.7a6.16,6.16,0,0,0-2.671-3.487,14.135,14.135,0,0,0-.564-4.6c-1.47-4.344-4.951-4.1-8.236-6.016-1.425-.833-1.337-1.57-2.079-2.939a10.905,10.905,0,0,0-4.2-4.288c-2.107-1.343-4.332-2.725-6.825-2.9-5.239-.357-9.256,4.571-14.263,6.152-2.207.7-4.579.726-6.8,1.385s-4.432,2.232-4.763,4.523c-.153,1.058.117,2.143-.038,3.2-.308,2.1-2.151,3.573-3.386,5.3-2.729,3.822-2.417,9.222-.234,13.38a18.8,18.8,0,0,0,1.574,2.463,15.149,15.149,0,0,0,1.662,5.626c2.183,4.159,5.938,7.266,9.861,9.848a23.287,23.287,0,0,1-.582-4.2,2.9,2.9,0,0,1,.179-1.391c.437-.913,1.591-1.156,2.472-1.656,1.823-1.036,2.538-3.329,2.591-5.425s-.392-4.2-.172-6.282a3.432,3.432,0,0,1,1.175-2.525,4.059,4.059,0,0,1,2.215-.528c3.736-.152,7.639-.221,10.934-1.988a16.2,16.2,0,0,1,3.4-1.722c2.8-.73,5.662,1.232,7.276,3.635s2.418,5.261,3.907,7.742,4.061,4.694,6.94,4.4a1.152,1.152,0,0,0,.86-.382,1.289,1.289,0,0,0,.158-.732l.161-11a16.634,16.634,0,0,0-.555-5.593Z" transform="translate(-273.677 -117.28)" fill="#2f2e41"/>
  <path id="Path_31" data-name="Path 31" d="M940.4,398.959s22,10,21,31,6,23-11,25-21,0-22,2-7-46-3-51S940.4,398.959,940.4,398.959Z" transform="translate(-252.904 -124.948)" fill="#2b2b2b"/>
  <circle id="Ellipse_29" data-name="Ellipse 29" cx="32" cy="32" r="32" transform="translate(321.177 65)" fill="#2f2e41"/>
  <path id="Path_32" data-name="Path 32" d="M519.4,547.959l-18,49s-15,12-6,16,27-4,27-4l14-36-2-25Z" transform="translate(-149.242 -137.639)" fill="#2f2e41"/>
  <path id="Path_33" data-name="Path 33" d="M519.4,547.959l-18,49s-15,12-6,16,27-4,27-4l14-36-2-25Z" transform="translate(-149.242 -137.639)" opacity="0.1"/>
  <path id="Path_34" data-name="Path 34" d="M520.9,257.459l15,2s7,55,4,59-18,20-24,16S520.9,257.459,520.9,257.459Z" transform="translate(-152.678 -113.745)" fill="#575a89"/>
  <path id="Path_35" data-name="Path 35" d="M377.4,357.959s-21,9-25,10-10,11-3,13,34-18,34-18Z" transform="translate(-113.24 -120.493)" fill="#a0616a"/>
  <path id="Path_36" data-name="Path 36" d="M526.4,567.959l11,41s1,15,6,16,20-5,20-7-6-18-6-18,0-12-6-17S540,561.209,540,561.209Z" transform="translate(-156.729 -138.604)" fill="#2f2e41"/>
  <path id="Path_37" data-name="Path 37" d="M540.4,473.959c2.02,4.71,1.77,38.88-.44,61.62-1.07,11.05-2.6,19.4-4.56,20.38l-14.33-3.58-5.67-1.42-.15-12.44-.85-68.56-17-71v-18l43,4,6.82,10.71.18.29S537.4,466.959,540.4,473.959Z" transform="translate(-151.056 -128.606)" fill="#2f2e41"/>
  <path id="Path_38" data-name="Path 38" d="M531.4,495.959c2.14,3.21,5.71,22.43,8.56,39.62-1.07,11.05-2.6,19.4-4.56,20.38l-14.33-3.58c-.22-.46-.44-.94-.67-1.42-1.83-3.84-3.55-8.08-5.15-12.44l-.85-68.56-17-71v-18l43,4,6.82,10.71-39.82-2.71,9,39,11,41S527.4,489.959,531.4,495.959Z" transform="translate(-151.037 -128.606)" opacity="0.1"/>
  <path id="Path_39" data-name="Path 39" d="M460.4,340.959s-14,31,6,74a874.079,874.079,0,0,1,33,82s7,33,17,54,8,22,8,22l16-9s-9-62-13-68-4-23-4-23l-11-41-9-39,44,3s0-57-20-68Z" transform="translate(-144.933 -126.807)" fill="#2f2e41"/>
  <path id="Path_40" data-name="Path 40" d="M476.9,212.459s0,16-5,17-15,1-18,6,23,71,23,71l27-17,9-45s-13-8-13-12v-18Z" transform="translate(-141.242 -110.193)" fill="#a0616a"/>
  <path id="Path_41" data-name="Path 41" d="M476.9,212.459s0,16-5,17-15,1-18,6,23,71,23,71l27-17,9-45s-13-8-13-12v-18Z" transform="translate(-141.242 -110.193)" opacity="0.1"/>
  <circle id="Ellipse_30" data-name="Ellipse 30" cx="24" cy="24" r="24" transform="translate(324.625 81.5)" fill="#a0616a"/>
  <path id="Path_42" data-name="Path 42" d="M479.9,286.459s-9-57-11-57-30,6-32,7-9,10-9,10l14,40s6,28,10,33,12,19,8,21-8,5-4,5,37-6,39-3,35-11,35-12-4-48-4-48l10-23-30-21Z" transform="translate(-139.449 -112.094)" fill="#575a89"/>
  <path id="Path_43" data-name="Path 43" d="M437.9,241.459l-10,5s-28,64-30,65-12,20-13,24-3,17-6,19a51.954,51.954,0,0,1-5,3s6,10,9,10,13-14,13-14,22,14,28,3,21-81,21-81Z" transform="translate(-122.503 -113.398)" fill="#575a89"/>
  <path id="Path_44" data-name="Path 44" d="M516.4,271.959s-14-34-22-30,6,28,15,32Z" transform="translate(-147.186 -111.594)" fill="#a0616a"/>
  <path id="Path_45" data-name="Path 45" d="M502.4,272.959l14.031-3.172,2.969,15.172s13,23,10,33-21,26-27,17-11-23-7-31S505.4,276.959,502.4,272.959Z" transform="translate(-148.787 -114.565)" opacity="0.1"/>
  <path id="Path_46" data-name="Path 46" d="M505.4,270.959l14.031-3.172,2.969,15.172s13,23,10,33-21,26-27,17-11-23-7-31S508.4,274.959,505.4,270.959Z" transform="translate(-149.511 -114.399)" fill="#575a89"/>
  <ellipse id="Ellipse_31" data-name="Ellipse 31" cx="11.5" cy="24" rx="11.5" ry="24" transform="translate(327.054 90.732) rotate(-64.899)" fill="#2f2e41"/>
  <circle id="Ellipse_32" data-name="Ellipse 32" cx="14" cy="14" r="14" transform="translate(352.759 56)" fill="#2f2e41"/>
  <path id="Path_47" data-name="Path 47" d="M503.9,165.459a14,14,0,0,1,12.5-13.917,14,14,0,1,0,0,27.834A14,14,0,0,1,503.9,165.459Z" transform="translate(-148.426 -100.459)" fill="#2f2e41"/>
  <rect id="Rectangle_118" data-name="Rectangle 118" width="350" height="243" transform="translate(64.806 245.06)" fill="#3f3d56"/>
  <rect id="Rectangle_119" data-name="Rectangle 119" width="46" height="46" transform="translate(92.806 276.762)" fill="#f2f2f2"/>
  <rect id="Rectangle_120" data-name="Rectangle 120" width="46" height="46" transform="translate(92.806 345.723)" fill="#2b2b2b"/>
  <rect id="Rectangle_121" data-name="Rectangle 121" width="46" height="46" transform="translate(92.806 414.684)" fill="#f2f2f2"/>
  <rect id="Rectangle_122" data-name="Rectangle 122" width="219" height="4" transform="translate(128.547 291.63)" fill="#f2f2f2"/>
  <rect id="Rectangle_123" data-name="Rectangle 123" width="68" height="4" transform="translate(133.573 303.646)" fill="#f2f2f2"/>
  <rect id="Rectangle_124" data-name="Rectangle 124" width="219" height="4" transform="translate(128.547 360.955)" fill="#f2f2f2"/>
  <rect id="Rectangle_125" data-name="Rectangle 125" width="68" height="4" transform="translate(133.573 372.972)" fill="#f2f2f2"/>
  <rect id="Rectangle_126" data-name="Rectangle 126" width="219" height="4" transform="translate(128.547 430.281)" fill="#f2f2f2"/>
  <rect id="Rectangle_127" data-name="Rectangle 127" width="68" height="4" transform="translate(133.573 442.297)" fill="#f2f2f2"/>
  <path id="Path_48" data-name="Path 48" d="M1028.9,769.392c0,20.356-12.1,27.464-27.028,27.464-.346,0-.692-.005-1.035-.012-.692-.015-1.378-.047-2.055-.094-13.473-.953-23.939-8.426-23.939-27.357,0-19.588,25.031-44.307,26.916-46.141l0,0c.072-.072.109-.107.109-.107S1028.9,749.038,1028.9,769.392Z" transform="translate(-290.052 -153.048)" fill="#2b2b2b"/>
  <path id="Path_49" data-name="Path 49" d="M1000.89,793.741l9.886-13.811-9.911,15.329-.025,1.585c-.692-.015-1.378-.047-2.055-.094l1.065-20.364-.007-.159.017-.027.1-1.925-9.936-15.366,9.965,13.923.025.408.8-15.386-8.505-15.879,8.61,13.18.838-31.9,0-.109v.107l-.139,25.155,8.468-9.973-8.5,12.14-.224,13.777,7.908-13.222-7.941,15.249-.124,7.659,11.476-18.4-11.52,21.075Z" transform="translate(-303.525 -153.048)" fill="#3f3d56"/>
  <path id="Path_50" data-name="Path 50" d="M151.9,630.392c0,20.356-12.1,27.464-27.028,27.464-.346,0-.692-.005-1.035-.012-.692-.015-1.378-.047-2.055-.094-13.473-.953-23.939-8.426-23.939-27.357,0-19.588,25.031-44.307,26.916-46.141l0,0c.072-.072.109-.107.109-.107S151.9,610.038,151.9,630.392Z" transform="translate(-39.097 -141.133)" fill="#2b2b2b"/>
  <path id="Path_51" data-name="Path 51" d="M123.89,654.741l9.886-13.811-9.911,15.329-.025,1.585c-.692-.015-1.378-.047-2.055-.094l1.065-20.364-.007-.159.017-.027.1-1.925-9.936-15.366,9.965,13.923.025.408.8-15.386-8.505-15.879,8.61,13.18.838-31.9,0-.109v.107l-.139,25.155,8.468-9.973-8.5,12.14-.224,13.777,7.908-13.222-7.941,15.249-.124,7.659,11.476-18.4-11.52,21.075Z" transform="translate(-39.097 -141.132)" fill="#3f3d56"/>
</svg>
